<mxfile host="app.diagrams.net" agent="Mozilla/5.0 (X11; Linux x86_64) AppleWebKit/537.36 (KHTML, like Gecko) Chrome/131.0.0.0 Safari/537.36" version="25.0.1">
  <diagram id="sAPiVkavU_vM4pkCJuUF" name="ページ1">
    <mxGraphModel dx="2249" dy="746" grid="1" gridSize="10" guides="1" tooltips="1" connect="1" arrows="1" fold="1" page="1" pageScale="1" pageWidth="827" pageHeight="1169" math="0" shadow="0">
      <root>
        <mxCell id="0" />
        <mxCell id="1" parent="0" />
        <mxCell id="2hfiS1e1vaS1avcaZc8Z-17" value="&lt;font style=&quot;font-size: 24px;&quot;&gt;SIGCHLD&lt;/font&gt;&lt;span style=&quot;font-size: 24px; background-color: initial;&quot;&gt;を待つ&lt;/span&gt;" style="text;html=1;align=left;verticalAlign=middle;whiteSpace=wrap;rounded=0;fontFamily=Architects Daughter;fontSource=https%3A%2F%2Ffonts.googleapis.com%2Fcss%3Ffamily%3DArchitects%2BDaughter;sketch=1;curveFitting=1;jiggle=2;strokeColor=none;" parent="1" vertex="1">
          <mxGeometry x="58.5" y="410" width="180" height="40" as="geometry" />
        </mxCell>
        <mxCell id="2hfiS1e1vaS1avcaZc8Z-2" value="&lt;font style=&quot;font-size: 24px;&quot;&gt;run&lt;/font&gt;" style="rounded=0;whiteSpace=wrap;html=1;sketch=1;hachureGap=4;jiggle=2;curveFitting=1;fontFamily=Architects Daughter;fontSource=https%3A%2F%2Ffonts.googleapis.com%2Fcss%3Ffamily%3DArchitects%2BDaughter;fillColor=none;" parent="1" vertex="1">
          <mxGeometry x="204" y="83" width="70" height="30" as="geometry" />
        </mxCell>
        <mxCell id="2hfiS1e1vaS1avcaZc8Z-4" value="" style="endArrow=none;html=1;rounded=0;sketch=1;hachureGap=4;jiggle=2;curveFitting=1;fontFamily=Architects Daughter;fontSource=https%3A%2F%2Ffonts.googleapis.com%2Fcss%3Ffamily%3DArchitects%2BDaughter;entryX=0.5;entryY=1;entryDx=0;entryDy=0;exitX=1;exitY=0.75;exitDx=0;exitDy=0;" parent="1" edge="1">
          <mxGeometry width="50" height="50" relative="1" as="geometry">
            <mxPoint x="239.5" y="440" as="sourcePoint" />
            <mxPoint x="240" y="113" as="targetPoint" />
          </mxGeometry>
        </mxCell>
        <mxCell id="2hfiS1e1vaS1avcaZc8Z-8" value="&lt;font style=&quot;font-size: 24px;&quot;&gt;コンテナの構造体をつくる&lt;/font&gt;" style="text;html=1;align=left;verticalAlign=middle;whiteSpace=wrap;rounded=0;fontFamily=Architects Daughter;fontSource=https%3A%2F%2Ffonts.googleapis.com%2Fcss%3Ffamily%3DArchitects%2BDaughter;sketch=1;curveFitting=1;jiggle=2;strokeColor=none;" parent="1" vertex="1">
          <mxGeometry x="-60" y="120" width="298.5" height="30" as="geometry" />
        </mxCell>
        <mxCell id="2hfiS1e1vaS1avcaZc8Z-10" value="&lt;font style=&quot;font-size: 24px;&quot;&gt;initのptsと通信する&lt;/font&gt;&lt;span style=&quot;font-size: 24px; background-color: initial;&quot;&gt;チャネル&lt;/span&gt;&lt;span style=&quot;font-size: 24px; background-color: initial;&quot;&gt;をつくる&lt;/span&gt;" style="text;html=1;align=left;verticalAlign=middle;whiteSpace=wrap;rounded=0;fontFamily=Architects Daughter;fontSource=https%3A%2F%2Ffonts.googleapis.com%2Fcss%3Ffamily%3DArchitects%2BDaughter;sketch=1;curveFitting=1;jiggle=2;strokeColor=none;" parent="1" vertex="1">
          <mxGeometry x="-169.5" y="170" width="408" height="43" as="geometry" />
        </mxCell>
        <mxCell id="2hfiS1e1vaS1avcaZc8Z-13" value="&lt;font style=&quot;font-size: 24px;&quot;&gt;コンテナの起動を通知する&lt;span style=&quot;background-color: initial;&quot;&gt;名前付きパイプをつくる&lt;/span&gt;&lt;/font&gt;" style="text;html=1;align=left;verticalAlign=middle;whiteSpace=wrap;rounded=0;fontFamily=Architects Daughter;fontSource=https%3A%2F%2Ffonts.googleapis.com%2Fcss%3Ffamily%3DArchitects%2BDaughter;sketch=1;curveFitting=1;jiggle=2;strokeColor=none;" parent="1" vertex="1">
          <mxGeometry x="-60.5" y="223" width="298.5" height="70" as="geometry" />
        </mxCell>
        <mxCell id="2hfiS1e1vaS1avcaZc8Z-15" value="&lt;font style=&quot;font-size: 24px;&quot;&gt;run initを非同期実行&lt;/font&gt;" style="text;html=1;align=left;verticalAlign=middle;whiteSpace=wrap;rounded=0;fontFamily=Architects Daughter;fontSource=https%3A%2F%2Ffonts.googleapis.com%2Fcss%3Ffamily%3DArchitects%2BDaughter;sketch=1;curveFitting=1;jiggle=2;strokeColor=none;" parent="1" vertex="1">
          <mxGeometry x="12" y="300" width="226" height="40" as="geometry" />
        </mxCell>
        <mxCell id="2hfiS1e1vaS1avcaZc8Z-16" value="&lt;font style=&quot;font-size: 24px;&quot;&gt;パイプからの通信を待つ&lt;/font&gt;" style="text;html=1;align=left;verticalAlign=middle;whiteSpace=wrap;rounded=0;fontFamily=Architects Daughter;fontSource=https%3A%2F%2Ffonts.googleapis.com%2Fcss%3Ffamily%3DArchitects%2BDaughter;sketch=1;curveFitting=1;jiggle=2;strokeColor=none;" parent="1" vertex="1">
          <mxGeometry x="-31.5" y="360" width="270" height="40" as="geometry" />
        </mxCell>
        <mxCell id="2hfiS1e1vaS1avcaZc8Z-22" value="" style="endArrow=none;html=1;rounded=0;sketch=1;hachureGap=4;jiggle=2;curveFitting=1;fontFamily=Architects Daughter;fontSource=https%3A%2F%2Ffonts.googleapis.com%2Fcss%3Ffamily%3DArchitects%2BDaughter;entryX=0.5;entryY=1;entryDx=0;entryDy=0;exitX=0.5;exitY=0;exitDx=0;exitDy=0;" parent="1" source="w2JN0z46ybfxZBrAL457-21" target="w2JN0z46ybfxZBrAL457-8" edge="1">
          <mxGeometry width="50" height="50" relative="1" as="geometry">
            <mxPoint x="348" y="320" as="sourcePoint" />
            <mxPoint x="342.33" y="123.00000000000011" as="targetPoint" />
          </mxGeometry>
        </mxCell>
        <mxCell id="2hfiS1e1vaS1avcaZc8Z-24" value="&lt;font style=&quot;font-size: 24px;&quot;&gt;Cのnsexec関数で名前空間を切替&lt;/font&gt;" style="text;html=1;align=left;verticalAlign=middle;whiteSpace=wrap;rounded=0;fontFamily=Architects Daughter;fontSource=https%3A%2F%2Ffonts.googleapis.com%2Fcss%3Ffamily%3DArchitects%2BDaughter;sketch=1;curveFitting=1;jiggle=2;strokeColor=none;" parent="1" vertex="1">
          <mxGeometry x="345" y="120" width="370" height="37" as="geometry" />
        </mxCell>
        <mxCell id="2hfiS1e1vaS1avcaZc8Z-25" value="&lt;font style=&quot;font-size: 24px;&quot;&gt;exec&lt;/font&gt;" style="text;html=1;align=left;verticalAlign=middle;whiteSpace=wrap;rounded=0;fontFamily=Architects Daughter;fontSource=https%3A%2F%2Ffonts.googleapis.com%2Fcss%3Ffamily%3DArchitects%2BDaughter;sketch=1;curveFitting=1;jiggle=2;strokeColor=none;" parent="1" vertex="1">
          <mxGeometry x="350" y="270" width="60" height="30" as="geometry" />
        </mxCell>
        <mxCell id="2hfiS1e1vaS1avcaZc8Z-26" value="&lt;font style=&quot;font-size: 24px;&quot;&gt;正常な起動をパイプで通知&lt;/font&gt;" style="text;html=1;align=left;verticalAlign=middle;whiteSpace=wrap;rounded=0;fontFamily=Architects Daughter;fontSource=https%3A%2F%2Ffonts.googleapis.com%2Fcss%3Ffamily%3DArchitects%2BDaughter;sketch=1;curveFitting=1;jiggle=2;strokeColor=none;" parent="1" vertex="1">
          <mxGeometry x="350" y="223" width="340" height="30" as="geometry" />
        </mxCell>
        <mxCell id="2hfiS1e1vaS1avcaZc8Z-28" value="&lt;font style=&quot;font-size: 24px;&quot;&gt;コンソールをつくる&lt;/font&gt;" style="text;html=1;align=left;verticalAlign=middle;whiteSpace=wrap;rounded=0;fontFamily=Architects Daughter;fontSource=https%3A%2F%2Ffonts.googleapis.com%2Fcss%3Ffamily%3DArchitects%2BDaughter;sketch=1;curveFitting=1;jiggle=2;strokeColor=none;" parent="1" vertex="1">
          <mxGeometry x="350" y="170" width="230" height="30" as="geometry" />
        </mxCell>
        <mxCell id="2hfiS1e1vaS1avcaZc8Z-30" value="&lt;font style=&quot;font-size: 24px;&quot;&gt;exit&lt;/font&gt;" style="text;html=1;align=left;verticalAlign=middle;whiteSpace=wrap;rounded=0;fontFamily=Architects Daughter;fontSource=https%3A%2F%2Ffonts.googleapis.com%2Fcss%3Ffamily%3DArchitects%2BDaughter;sketch=1;curveFitting=1;jiggle=2;strokeColor=none;" parent="1" vertex="1">
          <mxGeometry x="350" y="370" width="50" height="30" as="geometry" />
        </mxCell>
        <mxCell id="2hfiS1e1vaS1avcaZc8Z-31" value="" style="endArrow=none;html=1;rounded=0;sketch=1;hachureGap=4;jiggle=2;curveFitting=1;fontFamily=Architects Daughter;fontSource=https%3A%2F%2Ffonts.googleapis.com%2Fcss%3Ffamily%3DArchitects%2BDaughter;entryX=0.5;entryY=1;entryDx=0;entryDy=0;" parent="1" edge="1">
          <mxGeometry width="50" height="50" relative="1" as="geometry">
            <mxPoint x="335" y="440" as="sourcePoint" />
            <mxPoint x="334.66" y="350" as="targetPoint" />
          </mxGeometry>
        </mxCell>
        <mxCell id="w2JN0z46ybfxZBrAL457-8" value="&lt;font style=&quot;font-size: 24px;&quot;&gt;init&lt;/font&gt;" style="rounded=0;whiteSpace=wrap;html=1;sketch=1;hachureGap=4;jiggle=2;curveFitting=1;fontFamily=Architects Daughter;fontSource=https%3A%2F%2Ffonts.googleapis.com%2Fcss%3Ffamily%3DArchitects%2BDaughter;fillColor=none;" vertex="1" parent="1">
          <mxGeometry x="300" y="83" width="70" height="30" as="geometry" />
        </mxCell>
        <mxCell id="w2JN0z46ybfxZBrAL457-21" value="&lt;font style=&quot;font-size: 24px;&quot;&gt;sh&lt;/font&gt;" style="rounded=0;whiteSpace=wrap;html=1;sketch=1;hachureGap=4;jiggle=2;curveFitting=1;fontFamily=Architects Daughter;fontSource=https%3A%2F%2Ffonts.googleapis.com%2Fcss%3Ffamily%3DArchitects%2BDaughter;fillColor=none;" vertex="1" parent="1">
          <mxGeometry x="300" y="320" width="70" height="30" as="geometry" />
        </mxCell>
        <mxCell id="w2JN0z46ybfxZBrAL457-24" value="" style="endArrow=none;dashed=1;html=1;dashPattern=1 3;strokeWidth=2;rounded=0;sketch=1;hachureGap=4;jiggle=2;curveFitting=1;fontFamily=Architects Daughter;fontSource=https%3A%2F%2Ffonts.googleapis.com%2Fcss%3Ffamily%3DArchitects%2BDaughter;" edge="1" parent="1">
          <mxGeometry width="50" height="50" relative="1" as="geometry">
            <mxPoint x="240" y="430" as="sourcePoint" />
            <mxPoint x="330" y="390" as="targetPoint" />
          </mxGeometry>
        </mxCell>
        <mxCell id="w2JN0z46ybfxZBrAL457-25" value="" style="endArrow=none;dashed=1;html=1;dashPattern=1 3;strokeWidth=2;rounded=0;sketch=1;hachureGap=4;jiggle=2;curveFitting=1;fontFamily=Architects Daughter;fontSource=https%3A%2F%2Ffonts.googleapis.com%2Fcss%3Ffamily%3DArchitects%2BDaughter;exitX=1.008;exitY=0.367;exitDx=0;exitDy=0;exitPerimeter=0;" edge="1" parent="1" source="2hfiS1e1vaS1avcaZc8Z-16">
          <mxGeometry width="50" height="50" relative="1" as="geometry">
            <mxPoint x="250" y="440" as="sourcePoint" />
            <mxPoint x="330" y="240" as="targetPoint" />
          </mxGeometry>
        </mxCell>
        <mxCell id="w2JN0z46ybfxZBrAL457-26" value="" style="endArrow=none;dashed=1;html=1;dashPattern=1 3;strokeWidth=2;rounded=0;sketch=1;hachureGap=4;jiggle=2;curveFitting=1;fontFamily=Architects Daughter;fontSource=https%3A%2F%2Ffonts.googleapis.com%2Fcss%3Ffamily%3DArchitects%2BDaughter;exitX=1.008;exitY=0.367;exitDx=0;exitDy=0;exitPerimeter=0;entryX=0;entryY=0.5;entryDx=0;entryDy=0;" edge="1" parent="1" target="w2JN0z46ybfxZBrAL457-8">
          <mxGeometry width="50" height="50" relative="1" as="geometry">
            <mxPoint x="238.5" y="320" as="sourcePoint" />
            <mxPoint x="327.5" y="185" as="targetPoint" />
          </mxGeometry>
        </mxCell>
      </root>
    </mxGraphModel>
  </diagram>
</mxfile>
